<?xml version="1.0" standalone="no"?><!DOCTYPE svg PUBLIC "-//W3C//DTD SVG 1.1//EN" "http://www.w3.org/Graphics/SVG/1.1/DTD/svg11.dtd"><svg t="1522225081648" class="icon" style="" viewBox="0 0 1024 1024" version="1.1" xmlns="http://www.w3.org/2000/svg" p-id="2251" xmlns:xlink="http://www.w3.org/1999/xlink" width="200" height="200"><defs><style type="text/css"></style></defs><path d="M512.154014 0c-282.66615 0-511.847009 229.172493-511.847009 511.826038 0 282.653545 229.18086 511.826038 511.847009 511.826038s511.844963-229.172493 511.844963-511.826038C1023.998977 229.172493 794.820164 0 512.154014 0zM512.154014 927.685397c-229.6823 0-415.875375-186.187493-415.875375-415.859359S282.471714 95.966679 512.154014 95.966679c229.67923 0 415.874352 186.187493 415.874352 415.859359S741.834268 927.685397 512.154014 927.685397zM710.825796 286.197254 439.673336 557.1145 313.173181 430.68502 222.749117 521.018398 439.673336 737.801722 801.248836 376.49277Z" p-id="2252" fill="#57A957"></path></svg>